<?xml version="1.0" standalone="no"?>
<!DOCTYPE svg PUBLIC "-//W3C//DTD SVG 20010904//EN"
 "http://www.w3.org/TR/2001/REC-SVG-20010904/DTD/svg10.dtd">
<svg version="1.0" xmlns="http://www.w3.org/2000/svg"
 width="193.000000pt" height="193.000000pt" viewBox="0 0 193.000000 193.000000"
 preserveAspectRatio="xMidYMid meet">
<metadata>
Created by potrace 1.14, written by Peter Selinger 2001-2017
</metadata>
<g transform="translate(0.000000,193.000000) scale(0.100000,-0.100000)"
fill="#000000" stroke="none">
<path d="M752 1858 c3 -48 12 -88 27 -117 17 -32 19 -42 8 -38 -109 42 -536
50 -650 12 -64 -21 -72 -40 -25 -63 14 -7 43 -37 63 -68 20 -30 43 -58 51 -61
16 -6 19 -23 5 -23 -5 0 -16 6 -24 14 -18 18 -96 24 -105 9 -18 -29 16 -295
48 -368 5 -11 11 -31 13 -45 7 -37 30 -93 44 -108 7 -7 13 -17 13 -21 0 -4 9
-18 20 -31 25 -29 25 -37 2 -45 -58 -18 -71 -200 -22 -287 7 -13 4 -21 -12
-33 -13 -8 -28 -15 -35 -15 -7 0 -13 -4 -13 -10 0 -5 -6 -10 -12 -10 -7 0 -20
-4 -28 -10 -12 -7 -11 -12 5 -30 14 -16 30 -21 60 -20 61 3 65 2 65 -21 0 -31
36 -104 88 -176 50 -69 131 -131 206 -157 130 -44 160 -49 331 -50 l170 -2 65
-34 c77 -41 153 -49 266 -29 73 13 93 26 54 36 -33 9 -23 26 11 19 37 -7 66 7
142 69 59 48 67 64 42 85 -13 10 -25 10 -66 -4 -80 -25 -100 -18 -61 23 9 10
39 45 65 79 42 51 55 60 88 65 75 10 137 76 162 172 14 54 16 166 3 203 -5 14
-3 28 4 37 7 8 10 15 6 15 -4 0 1 15 10 33 25 46 25 237 1 330 -22 83 -45 122
-122 204 -50 54 -77 73 -170 117 -89 44 -230 94 -400 143 -40 12 -182 90 -237
131 -32 23 -76 67 -99 97 -23 30 -46 55 -52 55 -6 0 -8 -27 -5 -72z m156 -460
c-3 -7 4 -20 15 -29 19 -14 16 -46 -2 -34 -5 2 -6 -7 -3 -20 6 -34 15 -38 84
-36 34 1 57 -2 54 -8 -3 -5 2 -8 11 -7 10 0 26 -16 41 -42 23 -41 25 -42 42
-25 14 15 14 19 3 21 -8 2 -12 10 -9 17 6 17 -28 62 -66 85 l-29 18 34 21 c41
25 51 26 67 6 7 -8 22 -15 34 -15 29 0 102 -90 84 -103 -9 -6 -8 -7 4 -4 19 7
63 -57 52 -75 -5 -7 -2 -8 6 -3 10 6 12 4 7 -9 -4 -9 -3 -15 1 -12 11 7 40
-53 52 -111 24 -104 3 -338 -31 -359 -5 -3 -9 -14 -9 -25 0 -13 -4 -18 -12
-13 -7 5 -9 2 -6 -8 4 -9 -5 -27 -20 -43 -36 -39 -37 -57 -4 -49 53 12 116 50
160 94 25 25 49 44 54 43 4 -2 7 0 7 5 -3 20 2 32 13 26 6 -4 8 -3 5 3 -4 6 4
31 18 55 19 35 34 47 64 56 60 19 90 15 101 -10 5 -13 9 -17 9 -9 1 11 4 11
16 1 9 -7 14 -19 11 -27 -3 -8 -2 -11 3 -8 31 19 30 -162 -1 -235 -16 -38 -55
-80 -42 -45 5 13 4 16 -4 11 -7 -4 -12 -16 -12 -27 0 -42 -148 -76 -195 -45
-14 9 -25 23 -25 31 0 18 -26 20 -36 3 -5 -7 -2 -8 7 -3 11 6 11 5 2 -5 -9
-10 -7 -17 10 -31 12 -10 17 -18 10 -19 -7 0 -10 -7 -7 -17 5 -16 4 -16 -8 -2
-19 23 -81 41 -114 33 -16 -4 -50 -19 -76 -35 -25 -15 -50 -25 -55 -21 -4 4
-5 3 -1 -1 10 -13 -69 -80 -83 -71 -8 5 -9 3 -5 -5 10 -15 -23 -42 -42 -36 -7
3 -11 1 -8 -4 3 -5 -9 -12 -27 -16 -107 -25 -137 -36 -155 -60 -11 -13 -22
-22 -25 -19 -3 3 -3 -5 0 -18 4 -18 3 -20 -6 -8 -7 10 -11 11 -11 3 0 -14 -41
-17 -114 -7 -33 5 -43 10 -34 16 9 6 6 7 -10 3 -29 -8 -122 19 -194 57 -68 36
-143 102 -133 118 3 6 1 9 -5 8 -17 -4 -63 89 -64 127 -1 18 -4 31 -9 28 -4
-2 -8 8 -8 24 -1 15 -3 44 -5 63 -2 19 -2 42 2 50 3 8 7 40 9 70 3 64 32 181
47 195 8 7 9 6 4 -2 -4 -7 -2 -13 5 -13 7 0 10 -11 7 -29 -2 -17 -1 -28 3 -26
4 3 9 -2 13 -10 3 -9 -3 -19 -14 -25 -27 -15 -27 -54 0 -47 10 3 21 0 24 -7 3
-6 3 -1 0 12 -4 16 -1 22 10 22 18 0 20 -9 6 -44 -11 -30 2 -42 23 -21 19 18
78 20 96 3 9 -9 12 -9 7 -1 -4 8 5 11 29 9 20 -2 33 -1 30 2 -7 7 38 38 50 34
6 -2 4 2 -2 9 -10 10 -18 10 -38 1 -43 -20 -108 -15 -146 11 -93 62 -85 289
13 359 19 13 51 23 84 26 48 4 56 2 81 -24 16 -16 36 -40 45 -54 l17 -25 -1
33 c-1 17 -5 32 -9 32 -4 0 -14 16 -23 35 -10 20 -21 33 -27 30 -5 -4 -19 -3
-30 0 -17 6 -19 9 -8 16 9 6 10 9 2 9 -6 0 -15 -4 -18 -10 -3 -5 -19 -10 -34
-10 -16 0 -44 -7 -64 -15 -19 -8 -38 -11 -42 -7 -5 4 -5 2 -2 -5 4 -6 -5 -22
-20 -35 -16 -13 -30 -31 -32 -39 -2 -7 -10 -34 -18 -59 l-13 -45 5 71 c2 39 9
84 16 100 6 16 12 37 15 48 5 29 44 99 65 119 10 9 32 17 50 17 l32 0 -28 -22
c-30 -23 -55 -74 -55 -110 0 -25 14 -15 34 24 7 12 20 22 29 22 9 -1 14 3 11
8 -4 6 0 14 7 19 20 13 31 11 23 -3 -6 -10 -4 -10 7 0 7 6 37 12 66 12 42 0
51 3 47 15 -4 9 0 15 7 15 9 0 10 3 4 8 -22 16 -16 35 9 30 14 -3 23 -2 21 2
-3 4 10 11 28 14 18 3 60 17 93 30 70 29 77 30 72 14z m-602 -514 c-3 -9 -6
-23 -6 -32 0 -15 -2 -15 -11 -2 -8 12 -9 9 -5 -12 7 -32 -9 -38 -19 -8 -7 21
-25 28 -25 10 0 -6 7 -24 15 -40 15 -29 12 -107 -6 -140 -10 -19 -23 14 -33
81 -5 36 -3 50 9 63 9 9 11 16 5 16 -15 0 6 40 34 62 27 22 50 23 42 2z"/>
<path d="M1018 1263 c7 -3 16 -2 19 1 4 3 -2 6 -13 5 -11 0 -14 -3 -6 -6z"/>
<path d="M1026 1148 c5 -7 -17 -13 -38 -9 -5 0 -8 -4 -8 -10 0 -5 -5 -7 -10
-4 -6 4 -9 1 -8 -7 2 -7 -5 -12 -14 -12 -10 1 -14 -4 -11 -11 2 -7 -4 -16 -14
-19 -13 -4 -20 -17 -21 -41 -2 -19 0 -35 2 -35 3 0 19 20 35 44 32 46 82 76
126 76 44 0 104 -41 133 -90 24 -39 27 -56 27 -130 0 -68 -5 -93 -22 -127 -47
-88 -139 -116 -226 -69 -26 14 -50 26 -53 26 -9 0 48 -65 57 -66 5 -1 14 -2
19 -3 6 0 10 -9 10 -18 0 -11 3 -14 8 -7 4 6 33 13 66 16 51 4 59 2 64 -14 2
-10 11 -18 18 -18 8 0 14 -4 14 -10 0 -5 5 -10 10 -10 6 0 4 13 -5 30 -18 35
-19 41 -2 64 12 16 14 16 39 -4 28 -21 50 -11 29 14 -6 7 -7 17 -3 21 4 5 2 5
-5 1 -18 -10 -25 11 -12 35 6 12 14 17 18 11 4 -6 11 -4 20 5 11 12 11 14 -1
11 -15 -3 -18 2 -18 30 0 14 2 15 10 2 7 -11 8 -5 5 20 -11 94 -13 140 -5 145
4 3 11 0 13 -5 3 -6 4 -5 3 2 -2 7 -8 12 -14 11 -14 -3 -35 33 -29 50 2 6 -9
22 -25 35 -15 13 -26 28 -23 32 3 5 0 12 -6 16 -8 4 -9 3 -5 -4 10 -17 -6 -15
-32 4 -24 17 -125 36 -116 22z"/>
<path d="M700 1049 c0 -5 5 -7 10 -4 6 3 10 8 10 11 0 2 -4 4 -10 4 -5 0 -10
-5 -10 -11z"/>
<path d="M485 1038 c-60 -32 -74 -114 -30 -166 70 -83 201 -17 181 91 -13 67
-93 107 -151 75z m110 -68 c0 -8 -10 -16 -22 -18 -18 -3 -23 2 -23 18 0 16 5
21 23 18 12 -2 22 -10 22 -18z"/>
<path d="M965 998 c-64 -50 -65 -131 -4 -183 72 -60 189 -4 189 90 0 34 -24
80 -52 99 -33 23 -100 20 -133 -6z m133 -61 c4 -20 -25 -34 -40 -19 -15 15 -1
44 19 40 10 -2 19 -11 21 -21z"/>
<path d="M672 744 c-26 -31 -29 -41 -21 -66 5 -17 6 -35 2 -41 -3 -6 -1 -7 5
-3 6 4 17 -2 24 -14 13 -21 38 -27 38 -9 0 5 4 8 9 5 12 -8 63 42 58 57 -2 7
-23 12 -50 13 -26 0 -50 4 -53 7 -3 3 3 19 15 35 42 59 19 72 -27 16z"/>
<path d="M1685 740 c3 -4 -13 -19 -35 -34 -43 -28 -55 -32 -44 -14 5 7 3 8 -5
4 -7 -5 -10 -11 -7 -14 4 -3 -6 -18 -21 -34 -20 -21 -29 -25 -40 -16 -10 8
-13 6 -10 -11 2 -12 14 -29 28 -38 19 -14 21 -14 12 -2 -11 13 -5 21 33 47 25
18 50 29 56 26 6 -4 8 -3 5 3 -9 14 40 46 55 37 6 -4 8 -3 5 3 -4 6 0 16 8 23
23 19 18 29 -15 28 -16 -1 -27 -4 -25 -8z"/>
<path d="M605 710 c-3 -5 -1 -10 4 -10 6 0 11 5 11 10 0 6 -2 10 -4 10 -3 0
-8 -4 -11 -10z"/>
<path d="M1771 684 c0 -11 3 -14 6 -6 3 7 2 16 -1 19 -3 4 -6 -2 -5 -13z"/>
<path d="M542 620 c-6 -11 -12 -35 -12 -53 0 -69 80 -104 198 -87 39 5 77 7
85 4 8 -3 18 -1 22 5 4 7 -1 9 -12 5 -17 -5 -17 -5 0 6 9 6 22 8 29 4 6 -4 8
-3 5 3 -4 6 16 31 44 57 50 46 55 66 18 66 -12 0 -19 -7 -19 -19 0 -10 -7 -22
-16 -25 -10 -4 -13 -2 -8 6 5 8 2 9 -10 5 -10 -4 -20 -7 -22 -7 -2 0 -4 -5 -4
-11 0 -5 6 -7 13 -3 9 6 8 3 -1 -9 -21 -26 -93 -48 -163 -51 -72 -3 -114 8
-103 26 4 7 3 8 -5 4 -6 -4 -14 0 -17 8 -8 22 4 68 16 61 6 -3 7 1 4 9 -8 22
-27 20 -42 -4z"/>
<path d="M961 604 c0 -11 3 -14 6 -6 3 7 2 16 -1 19 -3 4 -6 -2 -5 -13z"/>
<path d="M1441 581 c-8 -6 -9 -11 -3 -15 6 -3 14 -1 17 5 9 14 2 20 -14 10z"/>
<path d="M1644 545 c6 -16 5 -18 -5 -7 -17 16 -54 16 -67 -1 -15 -18 -34 -69
-23 -62 16 9 25 -16 10 -26 -9 -7 -5 -8 12 -3 15 3 30 1 33 -5 4 -6 15 -11 24
-10 14 0 13 2 -3 9 -18 8 -18 9 -2 9 10 1 20 8 23 16 4 8 10 12 15 9 5 -3 7 1
4 8 -2 7 -7 26 -9 42 -3 16 -8 31 -12 35 -4 3 -4 -3 0 -14z"/>
<path d="M609 459 c-20 -12 15 -23 37 -11 15 8 14 10 -4 14 -11 3 -26 2 -33
-3z"/>
<path d="M595 410 c-4 -6 5 -10 19 -10 14 0 26 5 26 10 0 6 -9 10 -19 10 -11
0 -23 -4 -26 -10z"/>
<path d="M1035 240 c3 -5 8 -10 11 -10 2 0 4 5 4 10 0 6 -5 10 -11 10 -5 0 -7
-4 -4 -10z"/>
<path d="M760 130 c0 -5 5 -10 11 -10 5 0 7 5 4 10 -3 6 -8 10 -11 10 -2 0 -4
-4 -4 -10z"/>
</g>
</svg>
